HIERARCHY
ROOT Hips
{
	OFFSET -13.091600 -28.302996 44.698402
	CHANNELS 6 Xposition Yposition Zposition Zrotation Xrotation Yrotation
	JOINT Chest
	{
		OFFSET -0.673000 0.623899 5.369202
		CHANNELS 6 Xposition Yposition Zposition Zrotation Xrotation Yrotation
		JOINT Chest2
		{
			OFFSET 0.000000 0.000000 4.415001
			CHANNELS 6 Xposition Yposition Zposition Zrotation Xrotation Yrotation
			JOINT Neck
			{
				OFFSET 0.000000 0.000002 10.273300
				CHANNELS 6 Xposition Yposition Zposition Zrotation Xrotation Yrotation
				JOINT Head
				{
					OFFSET 0.000000 0.000000 2.173897
					CHANNELS 6 Xposition Yposition Zposition Zrotation Xrotation Yrotation
					End Site
					{
						OFFSET 0.000000 0.000000 9.961800
					}
				}
			}
			JOINT LeftCollar
			{
				OFFSET 2.359900 -0.565201 5.928101
				CHANNELS 6 Xposition Yposition Zposition Zrotation Xrotation Yrotation
				JOINT LeftShoulder
				{
					OFFSET 5.443700 0.000000 0.000000
					CHANNELS 6 Xposition Yposition Zposition Zrotation Xrotation Yrotation
					JOINT LeftElbow
					{
						OFFSET 0.000000 0.000000 -10.615799
						CHANNELS 6 Xposition Yposition Zposition Zrotation Xrotation Yrotation
						JOINT LeftWrist
						{
							OFFSET 0.000000 -0.000002 -13.110302
							CHANNELS 6 Xposition Yposition Zposition Zrotation Xrotation Yrotation
							End Site
							{
								OFFSET 0.000000 0.000000 -2.173901
							}
						}
					}
				}
			}
			JOINT RightCollar
			{
				OFFSET -2.636600 -1.718800 6.889698
				CHANNELS 6 Xposition Yposition Zposition Zrotation Xrotation Yrotation
				JOINT RightShoulder
				{
					OFFSET -4.139101 0.000000 0.000000
					CHANNELS 6 Xposition Yposition Zposition Zrotation Xrotation Yrotation
					JOINT RightElbow
					{
						OFFSET 0.000000 0.000000 -10.471802
						CHANNELS 6 Xposition Yposition Zposition Zrotation Xrotation Yrotation
						JOINT RightWrist
						{
							OFFSET 0.000000 0.000000 -12.281898
							CHANNELS 6 Xposition Yposition Zposition Zrotation Xrotation Yrotation
							End Site
							{
								OFFSET 0.000000 -0.000002 -2.173901
							}
						}
					}
				}
			}
		}
	}
	JOINT LeftHip
	{
		OFFSET 2.273400 0.176701 -2.518002
		CHANNELS 6 Xposition Yposition Zposition Zrotation Xrotation Yrotation
		JOINT LeftKnee
		{
			OFFSET 0.000000 -0.000002 -20.456402
			CHANNELS 6 Xposition Yposition Zposition Zrotation Xrotation Yrotation
			JOINT LeftAnkle
			{
				OFFSET 0.000000 -0.000002 -16.635300
				CHANNELS 6 Xposition Yposition Zposition Zrotation Xrotation Yrotation
				End Site
				{
					OFFSET 0.000000 -8.812399 0.000001
				}
			}
		}
	}
	JOINT RightHip
	{
		OFFSET -1.914800 0.018101 -2.699299
		CHANNELS 6 Xposition Yposition Zposition Zrotation Xrotation Yrotation
		JOINT RightKnee
		{
			OFFSET 0.000000 -0.000002 -20.148901
			CHANNELS 6 Xposition Yposition Zposition Zrotation Xrotation Yrotation
			JOINT RightAnkle
			{
				OFFSET 0.000000 -0.000002 -16.838301
				CHANNELS 6 Xposition Yposition Zposition Zrotation Xrotation Yrotation
				End Site
				{
					OFFSET 0.000000 -8.328398 0.000001
				}
			}
		}
	}
}
MOTION
Frames: 4
Frame Time: 0.041667
-15.539703 -2.021395 47.131805 1547.871895 8.513694 6.589224 -0.673003 0.623895 5.369215 -0.244453 4.141964 -11.770281 0.000002 0.000003 4.415008 1.923186 -5.119746 -0.722673 -0.000001 -0.000001 10.273301 -36.837853 8.861106 3.350366 0.000001 -0.000002 2.173888 -2.399087 -3.301149 -6.334961 2.359906 -0.565201 5.928096 14.335913 -8.750067 -38.815507 5.443686 -0.000003 -0.000002 155.950281 210.009944 -298.027709 0.000001 0.000000 -10.615797 596.408731 -152.604499 191.206324 0.000000 0.000005 -13.110306 -1340.795750 -5.046666 105.096032 -2.636600 -1.718803 6.889697 163.346651 -165.033175 202.089861 -4.139092 -0.000005 -0.000004 440.147308 -397.374095 512.357461 -0.000003 -0.000006 -10.471807 0.882541 -24.199577 -362.322083 0.000001 0.000001 -12.281898 415.268917 15.912249 69.288752 2.273399 0.176699 -2.517992 -173.334410 -166.943975 -174.506470 -0.000002 -0.000005 -20.456402 173.349778 157.598842 -174.293710 -0.000002 0.000002 -16.635300 13.521259 23.069947 8.549630 -1.914799 0.018099 -2.699297 40.379416 200.837369 53.285939 -0.000002 -0.000001 -20.148899 154.614815 27.334757 -129.764401 -0.000002 -0.000003 -16.838301 -39.931950 10.053221 -9.779579
-15.566502 -2.898588 47.168507 1555.831634 8.459465 6.580834 -0.673000 0.623896 5.369213 -0.302172 3.921732 -11.703295 0.000001 0.000001 4.414999 1.955029 -4.987649 -0.637491 -0.000004 -0.000006 10.273294 -34.000545 8.565764 2.754464 -0.000001 -0.000001 2.173901 -2.055270 -3.505121 -5.790833 2.359902 -0.565206 5.928100 15.355302 -7.916917 -39.089405 5.443691 -0.000004 0.000000 154.915302 211.623221 -298.437712 -0.000002 -0.000004 -10.615801 596.226228 -152.156753 191.282822 -0.000001 0.000005 -13.110313 -1341.047429 -5.030494 105.303171 -2.636604 -1.718807 6.889703 163.305479 -164.914139 202.524507 -4.139099 -0.000002 0.000007 443.368479 -398.760487 514.875287 0.000002 -0.000001 -10.471797 -1.620368 -24.423686 -364.810430 -0.000000 0.000004 -12.281900 420.356725 16.074145 69.112662 2.273400 0.176696 -2.517997 -174.020284 -167.656036 -174.891788 -0.000001 -0.000006 -20.456398 173.961831 158.007438 -174.375918 -0.000001 -0.000004 -16.635300 14.098185 22.771400 8.863176 -1.914796 0.018096 -2.699295 41.451503 201.435789 54.655491 0.000001 -0.000003 -20.148907 155.010105 26.806949 -130.414416 -0.000001 -0.000004 -16.838299 -39.865861 10.602048 -9.839883
-15.496603 -3.762594 47.193901 1563.780990 8.549862 6.598830 -0.673002 0.623901 5.369207 -0.287422 3.547276 -11.616860 0.000002 -0.000005 4.415002 1.983648 -4.847706 -0.619274 -0.000003 -0.000003 10.273308 -30.801284 8.224280 2.322789 -0.000000 0.000003 2.173907 -1.640340 -3.496286 -5.109734 2.359902 -0.565207 5.928106 14.449653 -8.032764 -39.663605 5.443689 -0.000003 -0.000007 155.482358 211.512613 -297.645383 0.000001 0.000001 -10.615802 595.681343 -151.873600 191.056729 0.000004 0.000000 -13.110311 -1341.564774 -4.762068 105.405344 -2.636602 -1.718803 6.889711 163.474581 -164.956937 202.927652 -4.139104 -0.000001 0.000003 443.708076 -399.025717 515.711248 -0.000005 -0.000001 -10.471795 -1.873893 -24.957318 -365.229722 0.000003 -0.000002 -12.281898 421.159546 15.640510 68.856025 2.273403 0.176705 -2.518002 -174.507003 -168.121159 -175.294414 -0.000000 -0.000007 -20.456406 174.183880 158.347786 -174.403512 -0.000002 -0.000003 -16.635300 14.524600 22.387535 9.106693 -1.914798 0.018103 -2.699303 42.662919 201.894122 56.222040 0.000010 -0.000005 -20.148901 155.599168 26.217256 -130.888527 -0.000002 -0.000002 -16.838305 -39.859792 11.114804 -9.963855
-15.329804 -4.600092 47.208504 1571.744663 8.742786 6.590070 -0.673004 0.623901 5.369212 -0.432539 3.250765 -11.375956 -0.000002 -0.000003 4.415008 2.059145 -4.777694 -0.611026 -0.000003 0.000001 10.273308 -27.677950 7.721852 2.061184 -0.000003 -0.000003 2.173908 -0.452764 -3.393308 -4.257581 2.359903 -0.565198 5.928108 13.974057 -8.399137 -40.395730 5.443688 -0.000004 0.000004 156.023883 211.388754 -296.599435 0.000007 0.000004 -10.615808 594.978871 -152.045134 190.630785 0.000002 0.000004 -13.110311 -1342.757599 -4.244681 105.365995 -2.636601 -1.718803 6.889706 164.448197 -166.090393 203.545661 -4.139099 0.000005 -0.000009 443.505466 -399.375149 517.273285 0.000001 -0.000002 -10.471802 -2.743069 -25.158966 -365.850613 0.000010 -0.000001 -12.281888 422.589077 15.337060 68.683371 2.273399 0.176704 -2.518002 -174.718998 -168.358357 -175.709608 0.000001 0.000001 -20.456396 174.289789 158.527625 -174.417514 -0.000004 -0.000003 -16.635302 14.578994 21.984694 9.161461 -1.914798 0.018106 -2.699306 43.866535 202.302075 57.872691 0.000005 -0.000001 -20.148899 156.210593 25.389890 -131.180326 0.000001 -0.000002 -16.838299 -39.877598 11.620614 -10.456274
